<svg width="24" height="24" viewBox="0 0 24 24" fill="none" xmlns="http://www.w3.org/2000/svg">
<g clip-path="url(#clip0)">
<path d="M7.18991 9.52702C7.07877 9.52702 6.9718 9.54511 6.87153 9.57806V9.21183C6.87153 8.64858 6.41333 8.19033 5.85008 8.19033C5.72787 8.19033 5.61064 8.21194 5.50194 8.2515C5.39206 7.806 4.98922 7.47455 4.51025 7.47455C4.03128 7.47455 3.62844 7.80595 3.51856 8.2515C3.40986 8.21194 3.29262 8.19033 3.17042 8.19033C2.60717 8.19033 2.14892 8.64853 2.14892 9.20916L2.1208 12.9386L1.62692 12.4699C1.26748 12.1288 0.712765 12.1147 0.336453 12.4372C-0.0627817 12.7794 -0.11261 13.3854 0.225312 13.7881C0.31564 13.8958 2.86156 16.9398 2.95311 17.0295C2.6158 17.2519 2.39262 17.634 2.39262 18.0674V23.6484C2.39262 23.8426 2.55003 24 2.74419 24C2.93834 24 3.09575 23.8426 3.09575 23.6484V19.4948H7.50814V23.6484C7.50814 23.8426 7.66555 24 7.8597 24C8.05386 24 8.21127 23.8426 8.21127 23.6484V18.0675C8.21127 17.6515 8.00558 17.2828 7.69081 17.0572C8.0112 16.7497 8.21127 16.3178 8.21127 15.8397V10.5485C8.21141 9.98527 7.75316 9.52702 7.18991 9.52702ZM7.50828 18.7917H3.09584V18.0675C3.09584 17.77 3.33786 17.528 3.63537 17.528H6.96875C7.26627 17.528 7.50828 17.77 7.50828 18.0675V18.7917ZM7.50828 15.8398C7.50828 16.383 7.06639 16.8248 6.5232 16.8248H4.15006C3.85812 16.8248 3.58301 16.6965 3.39537 16.4729L0.764093 13.3363C0.672734 13.2274 0.686234 13.0636 0.79414 12.9711C0.895859 12.884 1.04591 12.8878 1.14303 12.9799L1.98936 13.7833C2.13162 13.9183 2.34017 13.956 2.52073 13.8792C2.70125 13.8025 2.81881 13.6262 2.82036 13.43L2.85214 9.21187C2.85214 9.03633 2.99497 8.8935 3.17052 8.8935C3.34606 8.8935 3.48889 9.03633 3.48889 9.21187V12.0612C3.48889 12.2554 3.6463 12.4128 3.84045 12.4128C4.03461 12.4128 4.19202 12.2554 4.19202 12.0612V8.49609C4.19202 8.32055 4.33484 8.17772 4.51039 8.17772C4.68594 8.17772 4.82876 8.32055 4.82876 8.49609V12.0612C4.82876 12.2554 4.98617 12.4128 5.18033 12.4128C5.37448 12.4128 5.53189 12.2554 5.53189 12.0612V9.21187C5.53189 9.03633 5.67472 8.8935 5.85027 8.8935C6.02581 8.8935 6.16859 9.03633 6.16859 9.21187V12.0612C6.16859 12.2554 6.326 12.4128 6.52016 12.4128C6.71431 12.4128 6.87172 12.2554 6.87172 12.0612V10.5485C6.87172 10.373 7.01455 10.2301 7.19009 10.2301C7.36564 10.2301 7.50847 10.373 7.50847 10.5485V15.8398H7.50828ZM14.4523 10.0374C14.5642 9.93052 17.23 6.74002 17.3371 6.61237C17.6862 6.19627 17.6347 5.5702 17.2223 5.21672C16.8336 4.88353 16.2605 4.89806 15.8892 5.25052L15.339 5.7727L15.3091 1.80942C15.3091 1.22695 14.8353 0.753047 14.2528 0.753047C14.1191 0.753047 13.9912 0.778266 13.8734 0.823781C13.767 0.352875 13.3456 0 12.8431 0C12.3405 0 11.9191 0.352875 11.8129 0.823781C11.695 0.778266 11.5672 0.753047 11.4335 0.753047C10.851 0.753047 10.3771 1.22691 10.3771 1.80942V2.22028C10.2666 2.18095 10.1478 2.15934 10.0239 2.15934C9.44141 2.15934 8.9675 2.6332 8.9675 3.21572V8.7825C8.9675 9.28819 9.18247 9.74442 9.52541 10.0654C9.18866 10.2982 8.9675 10.6868 8.9675 11.1263V23.6484C8.9675 23.8426 9.12491 24 9.31906 24C9.51322 24 9.67062 23.8426 9.67062 23.6484V12.6097H14.3495V23.6484C14.3495 23.8426 14.5069 24 14.701 24C14.8952 24 15.0526 23.8426 15.0526 23.6484V11.1263C15.0526 10.6687 14.8127 10.2663 14.4523 10.0374ZM9.67062 3.21567C9.67062 3.02091 9.82906 2.86242 10.0239 2.86242C10.2187 2.86242 10.3771 3.02086 10.3771 3.21567V4.80717C10.3771 5.00133 10.5345 5.15873 10.7287 5.15873C10.9228 5.15873 11.0802 5.00133 11.0802 4.80717V1.80942C11.0802 1.61466 11.2387 1.45617 11.4335 1.45617C11.6283 1.45617 11.7867 1.61461 11.7867 1.80942V4.80717C11.7867 5.00133 11.9442 5.15873 12.1383 5.15873C12.3325 5.15873 12.4899 5.00133 12.4899 4.80717V1.80942V1.05638C12.4899 0.861609 12.6483 0.703125 12.8431 0.703125C13.0379 0.703125 13.1964 0.861562 13.1964 1.05638V1.80942V4.80717C13.1964 5.00133 13.3538 5.15873 13.5479 5.15873C13.7421 5.15873 13.8995 5.00133 13.8995 4.80717V1.80942C13.8995 1.61466 14.058 1.45617 14.2528 1.45617C14.4475 1.45617 14.606 1.61461 14.606 1.81205L14.6396 6.26395C14.6411 6.46012 14.7587 6.63642 14.9392 6.71316C15.1197 6.78994 15.3283 6.75225 15.4706 6.6172L16.3732 5.76047C16.4823 5.65702 16.6506 5.65275 16.7648 5.75058C16.8859 5.85441 16.901 6.03825 16.7985 6.16045L14.0302 9.46036C13.8293 9.69984 13.5348 9.83719 13.2222 9.83719H10.7254C10.1438 9.83719 9.67072 9.36408 9.67072 8.7825V3.21567H9.67062ZM14.3495 11.9065H9.67067V11.1263C9.67067 10.8031 9.9335 10.5403 10.2566 10.5403H13.7636C14.0867 10.5403 14.3495 10.8031 14.3495 11.1263V11.9065ZM23.7746 13.7882C24.1125 13.3854 24.0627 12.7794 23.6635 12.4373C23.2873 12.1148 22.7325 12.1289 22.373 12.47L21.8791 12.9387L21.851 9.21187C21.851 8.64863 21.3928 8.19037 20.8295 8.19037C20.7073 8.19037 20.5901 8.21198 20.4814 8.25155C20.3715 7.806 19.9687 7.47459 19.4897 7.47459C19.0107 7.47459 18.6079 7.80605 18.498 8.25155C18.3893 8.21203 18.2721 8.19037 18.1499 8.19037C17.5866 8.19037 17.1284 8.64858 17.1284 9.21187V9.57811C17.0282 9.54516 16.9213 9.52706 16.8101 9.52706C16.2468 9.52706 15.7886 9.98531 15.7886 10.5486V15.8398C15.7886 16.3178 15.9886 16.7498 16.309 17.0573C15.9942 17.2829 15.7886 17.6515 15.7886 18.0675V23.6484C15.7886 23.8426 15.946 24 16.1401 24C16.3343 24 16.4917 23.8426 16.4917 23.6484V19.4948H19.8494C20.0435 19.4948 20.201 19.3375 20.201 19.1433C20.201 18.9491 20.0435 18.7917 19.8494 18.7917H16.4917V18.0675C16.4917 17.77 16.7337 17.528 17.0312 17.528H20.3646C20.6621 17.528 20.9041 17.77 20.9041 18.0675V23.6484C20.9041 23.8426 21.0615 24 21.2557 24C21.4498 24 21.6073 23.8426 21.6073 23.6484V18.0675C21.6073 17.634 21.3841 17.252 21.0468 17.0295C21.1391 16.939 23.685 13.895 23.7746 13.7882ZM20.6047 16.4729C20.417 16.6965 20.1419 16.8248 19.85 16.8248H17.4769C16.9337 16.8248 16.4918 16.383 16.4918 15.8398V10.5485C16.4918 10.373 16.6346 10.2301 16.8102 10.2301C16.9857 10.2301 17.1285 10.373 17.1285 10.5485V12.0612C17.1285 12.2554 17.2859 12.4128 17.4801 12.4128C17.6742 12.4128 17.8317 12.2554 17.8317 12.0612V9.21187C17.8317 9.03633 17.9745 8.8935 18.15 8.8935C18.3256 8.8935 18.4684 9.03633 18.4684 9.21187V12.0612C18.4684 12.2554 18.6258 12.4128 18.8199 12.4128C19.0141 12.4128 19.1715 12.2554 19.1715 12.0612V9.21187V8.49609C19.1715 8.32055 19.3143 8.17772 19.4899 8.17772C19.6654 8.17772 19.8082 8.32055 19.8082 8.49609V12.0612C19.8082 12.2554 19.9656 12.4128 20.1598 12.4128C20.354 12.4128 20.5114 12.2554 20.5114 12.0612V9.21187C20.5114 9.03633 20.6542 8.8935 20.8297 8.8935C21.0053 8.8935 21.1481 9.03633 21.1481 9.2145L21.1799 13.43C21.1814 13.6261 21.299 13.8024 21.4795 13.8792C21.66 13.9559 21.8686 13.9182 22.0109 13.7832L22.8572 12.9799C22.9544 12.8877 23.1044 12.8839 23.2061 12.9711C23.314 13.0636 23.3275 13.2274 23.2362 13.3363L20.6047 16.4729Z" fill="#293241"/>
</g>
<defs>
<clipPath id="clip0">
<rect width="24" height="24" fill="white"/>
</clipPath>
</defs>
</svg>
