<svg fill="none" height="20" viewBox="0 0 20 20" width="20" xmlns="http://www.w3.org/2000/svg"><path d="m20 9.26888c.0003 5.93332-4.7976 10.73112-10.73108 10.73112-3.86221 0-7.2481-2.0403-9.137643-5.1021-.422629-.6844.245143-1.5287 1.007883-1.2733.98148.3292 2.03213.5076 3.12466.5088 5.43866.0051 9.86948-4.42158 9.86948-9.8601 0-1.09583-.1787-2.1498-.5088-3.13459-.2555-.762416.5895-1.429868 1.2736-1.007553 3.0616 1.890103 5.1019 5.275603 5.1019 9.137723z" fill="#f6cb43"/><path d="m19.9999 9.26909c0 5.92611-4.8049 10.73081-10.73108 10.73081-3.64438 0-6.86461-1.8164-8.803-4.5936 1.73906 1.2139 3.85433 1.9256 6.13495 1.9256 5.92623 0 10.73103-4.8047 10.73103-10.73111 0-2.28177-.712-4.39699-1.9262-6.135702 2.7779 1.939252 4.5943 5.158802 4.5943 8.804002z" fill="#fab03c"/></svg>