<svg fill="none" height="33" viewBox="0 0 66 33" width="66" xmlns="http://www.w3.org/2000/svg"><rect fill="#3e4eb7" height="33" rx="16.5" width="66"/><path d="m26.7132 24.9707c.1676-2.7734 2.4695-4.9707 5.285-4.9707 2.2706 0 4.2073 1.4294 4.9599 3.4373 1.9554.0237 3.5334 1.6153 3.5334 3.5761 0 1.9758-1.6016 3.5774-3.5774 3.5774-.8271 0-9.2531 0-10.1028 0-1.5527 0-2.8113-1.2586-2.8113-2.8113 0-1.5197 1.2059-2.7569 2.7132-2.8088z" fill="#38aaff"/><path d="m40.4916 27.0139c0 1.9585-1.5751 3.5496-3.5282 3.5761.5855-.6372.9426-1.4862.9426-2.4191 0-1.9606-1.5778-3.5525-3.5336-3.5764-.7526-2.0074-2.6889-3.4371-4.9599-3.4371-.2683 0-.5318.0202-.7897.0587.9161-.7596 2.0921-1.2159 3.3751-1.2159 2.2712 0 4.2073 1.429 4.9599 3.4372 1.9558.0238 3.5338 1.6151 3.5338 3.5765z" fill="#2081f6"/><path d="m20.0623 10.4337c-.1836-3.03159-2.6999-5.4337-5.7777-5.4337-2.4822 0-4.59925 1.56259-5.42206 3.75762-2.13746.02578-3.86254 1.76558-3.86254 3.90938 0 2.1597 1.75086 3.9106 3.91054 3.9106h11.04436c1.6972 0 3.0733-1.376 3.0733-3.0733 0-1.6614-1.3184-3.014-2.9659-3.0706z" fill="#1e6be7"/><path d="m23.0283 13.5043c0 1.6972-1.3762 3.0735-3.0734 3.0735h-.2382c.2228-.4255.3489-.9099.3489-1.4231 0-1.6614-1.3182-3.0141-2.9659-3.0709-.1834-3.03145-2.6998-5.43372-5.7778-5.43372-.415 0-.8198.04362-1.2096.12665 1.0529-1.09492 2.5328-1.77649 4.1723-1.77649 3.0778 0 5.5942 2.40179 5.7778 5.43386 1.6476.0561 2.9659 1.4089 2.9659 3.0702z" fill="#2081f6"/><path d="m18.5298 10.0851c-.145 0-.2763-.09896-.3117-.24605-.0535-.22313-.127-.44319-.2183-.654-.0703-.16248.0046-.3514.1671-.42178.1628-.07038.3514.00454.4218.16703.1058.2447.191.49994.2532.75892.0414.17221-.0647.34538-.2369.38678-.0253.0061-.0504.0091-.0752.0091z" fill="#1e6be7"/><path d="m17.4365 8.08861c-.0843 0-.1685-.03291-.2314-.09859-.7721-.80432-1.8093-1.24735-2.9204-1.24735-.1771 0-.3206-.14351-.3206-.32076 0-.17708.1435-.32059.3206-.32059 1.2876 0 2.489.51292 3.3832 1.44454.1226.12778.1184.33081-.0093.45357-.0622.05951-.1423.08918-.2221.08918z" fill="#1e6be7"/><path d="m32.7482 12.3068c-.0009 0-.0017 0-.0028 0-.3017-.0013-.5451-.2472-.5437-.5492l.0011-.2139c.0014-.3008.2459-.5437.5465-.5437h.0027c.3017.0014.5452.2473.5438.5493l-.0011.2138c-.0014.3009-.2459.5437-.5465.5437z" fill="#f6cb43"/><path d="m32.7418 14.4856c-.0008 0-.0016 0-.0025 0-.302-.0014-.5454-.2473-.544-.549l.0008-.2141c.0017-.3009.2459-.544.5465-.544h.0028c.3017.0013.5451.2472.5437.549l-.0008.2141c-.0014.3011-.2459.544-.5465.544z" fill="#f6cb43"/><path d="m33.9445 13.2931c-.0008 0-.0017 0-.0025 0l-.2147-.0011c-.3017-.0014-.5451-.2473-.5437-.549.0014-.3009.2456-.544.5462-.544h.0028l.2144.0011c.302.0014.5454.247.544.549-.0014.3008-.2456.544-.5465.544z" fill="#f6cb43"/><path d="m31.7609 13.2862c-.0008 0-.0017 0-.0025 0l-.2147-.0008c-.3017-.0014-.5451-.2473-.5437-.549.0014-.3012.2456-.544.5462-.544h.0028l.2144.0008c.3017.0017.5454.2473.544.5493-.0014.3008-.2459.5437-.5465.5437z" fill="#f6cb43"/><path d="m17.7482 26.3068c-.0011 0-.0017 0-.0028 0-.3017-.0013-.5454-.2472-.5437-.5489l.0008-.2142c.0014-.3008.2459-.5437.5465-.5437h.0025c.302.0014.5454.247.544.549l-.0011.2138c-.0014.3012-.2459.544-.5462.544z" fill="#fab03c"/><path d="m33.7482 3.30684c-.0011 0-.0017 0-.0028 0-.3017-.00138-.5454-.24728-.5437-.54898l.0008-.21413c.0014-.30087.2459-.54373.5465-.54373h.0025c.302.00138.5454.247.544.54898l-.0011.21385c-.0014.30115-.2459.54401-.5462.54401z" fill="#fab03c"/><path d="m17.7413 28.4856c-.0008 0-.0016 0-.0025 0-.3019-.0014-.5454-.2473-.544-.549l.0011-.2141c.0014-.302.2445-.544.549-.544.3017.0013.5454.2472.544.5489l-.0011.2142c-.0014.3008-.2459.544-.5465.544z" fill="#fab03c"/><path d="m33.7413 5.48558c-.0008 0-.0016 0-.0025 0-.3019-.00138-.5454-.24728-.544-.54898l.0011-.21412c.0014-.30199.2445-.54401.549-.54401.3017.00138.5454.24727.544.54898l-.0011.21412c-.0014.30088-.2459.54401-.5465.54401z" fill="#fab03c"/><path d="m18.944 27.2933c-.0008 0-.0017 0-.0025 0l-.2147-.0011c-.3017-.0016-.5451-.2473-.5437-.5492.0014-.3009.2459-.5438.5465-.5438h.0025l.2147.0011c.3017.0014.5451.2473.5437.549-.0014.3009-.2459.544-.5465.544z" fill="#fab03c"/><path d="m34.944 4.29332c-.0008 0-.0017 0-.0025 0l-.2147-.00111c-.3017-.00166-.5451-.24727-.5437-.54926.0014-.30087.2459-.54373.5465-.54373h.0025l.2147.0011c.3017.00139.5451.24728.5437.54899-.0014.30087-.2459.54401-.5465.54401z" fill="#fab03c"/><path d="m16.7609 27.2862c-.0008 0-.0017 0-.0028 0l-.2144-.0011c-.3017-.0013-.5451-.2472-.5437-.549.0014-.3008.2459-.544.5462-.544h.0028l.2144.0011c.302.0017.5454.2473.544.5493-.0014.3009-.2459.5437-.5465.5437z" fill="#fab03c"/><path d="m32.7609 4.28624c-.0008 0-.0017 0-.0028 0l-.2144-.00111c-.3017-.00138-.5451-.24728-.5437-.54898.0014-.30088.2459-.54401.5462-.54401h.0028l.2144.0011c.302.00166.5454.24728.544.54926-.0014.30088-.2459.54374-.5465.54374z" fill="#fab03c"/><g fill="#f6cb43"><path d="m24.3838 4.53413c-.0013 0-.0019 0-.0032 0-.3541-.00195-.6398-.29022-.6382-.64465l.001-.25099c.0016-.35313.2886-.63849.6414-.63849h.0029c.3545.00162.6401.29022.6385.64433l-.0013.25131c-.0016.35313-.2882.63849-.6411.63849z"/><path d="m24.3757 7.09093c-.001 0-.002 0-.003 0-.3544-.00162-.6401-.28989-.6384-.64432l.0013-.25099c.0016-.35346.2886-.63849.641-.63849h.0033c.3541.00162.6401.2899.6381.64433l-.0009.25098c-.0016.35346-.2886.63849-.6414.63849z"/><path d="m25.7875 5.69134c-.0013 0-.0022 0-.0032 0l-.2516-.00129c-.3545-.00163-.6401-.29023-.6385-.64433.0016-.35443.2886-.6372.6446-.63849l.2517.00129c.3541.00195.6397.29023.6381.64466-.0016.35313-.2883.63816-.6411.63816z"/><path d="m23.225 5.68377c-.0013 0-.0022 0-.0032 0l-.2516-.00129c-.3545-.00162-.6401-.2899-.6385-.64433.0016-.35313.2886-.63849.6414-.63849h.0029l.252.0013c.3541.00162.6397.29022.6381.64432-.0016.35314-.2883.63849-.6411.63849z"/><path d="m5.05206 13.3439c-.00097 0-.00194 0-.00292 0-.35443-.0017-.64011-.2899-.63849-.6444l.0013-.251c.00162-.3534.28828-.6384.64108-.6384h.00325c.3541.0016.63979.2899.63816.6443l-.00097.251c-.00162.3534-.2886.6385-.64141.6385z"/><path d="m5.04376 15.9012c-.00097 0-.00195 0-.00292 0-.35443-.0016-.64011-.2902-.63849-.6446l.0013-.251c.00194-.3531.2886-.6382.64141-.6382h.00324c.3541.0017.63979.2903.63817.6444l-.0013.2513c-.00162.3531-.2886.6381-.64141.6381z"/><path d="m6.45563 14.5016c-.00097 0-.00227 0-.00324 0l-.25164-.0013c-.3541-.0016-.64011-.2902-.63849-.6443.00195-.3531.2886-.6385.64141-.6385h.00324l.25164.0013c.3541.0016.63979.2899.63817.6444-.00162.3531-.28828.6384-.64109.6384z"/><path d="m3.89338 14.4935c-.00098 0-.00195 0-.00325 0l-.25163-.001c-.35411-.0016-.64011-.2902-.63849-.6443.00162-.3534.2886-.6385.64141-.6385h.00291l.25196.001c.35411.0019.64012.2902.63817.6446-.00162.3532-.28828.6382-.64108.6382z"/></g></svg>