<svg width="24" height="24" viewBox="0 0 24 24" fill="none" xmlns="http://www.w3.org/2000/svg">
<path d="M22.5879 19.8904V19.0608C22.5879 18.1409 21.9975 17.3567 21.1758 17.0662V9.87328H21.8848C22.2731 9.87328 22.5879 9.55847 22.5879 9.17015V6.82054C22.5879 6.57703 22.4619 6.35081 22.2548 6.22265L12.37 0.105467C12.1433 -0.0348301 11.8567 -0.0348301 11.63 0.105467L1.74525 6.22265C1.53816 6.35081 1.41216 6.57703 1.41216 6.82054V9.17015C1.41216 9.55847 1.72697 9.87328 2.11528 9.87328H2.82422V17.0662C2.00255 17.3567 1.41211 18.1409 1.41211 19.0608V19.8904C0.590438 20.1809 0 20.9651 0 21.885V23.2971C0 23.6854 0.314812 24.0002 0.703125 24.0002H23.2969C23.6852 24.0002 24 23.6854 24 23.2971V21.885C24 20.9651 23.4096 20.1809 22.5879 19.8904ZM9.88477 9.87328V16.9455H7.05469V9.87328H9.88477ZM12.709 16.9455H11.291V9.87328H12.709V16.9455ZM14.1152 9.87328H16.9453V16.9455H14.1152V9.87328ZM19.7695 16.9455H18.3516V9.87328H19.7695V16.9455ZM2.81836 7.21233L12 1.53023L21.1816 7.21228V8.46703H2.81836V7.21233ZM5.64844 9.87328V16.9455H4.23047V9.87328H5.64844ZM2.81836 19.0608C2.81836 18.6698 3.13641 18.3518 3.52734 18.3518H20.4727C20.8636 18.3518 21.1816 18.6698 21.1816 19.0608V19.7698H2.81836V19.0608ZM22.5938 22.594H1.40625V21.885C1.40625 21.4941 1.7243 21.176 2.11523 21.176H21.8848C22.2757 21.176 22.5938 21.4941 22.5938 21.885V22.594Z" fill="#09BDED"/>
<path d="M12 3.29297C10.8337 3.29297 9.88477 4.24186 9.88477 5.4082C9.88477 6.57455 10.8337 7.52344 12 7.52344C13.1663 7.52344 14.1152 6.57455 14.1152 5.4082C14.1152 4.24186 13.1663 3.29297 12 3.29297ZM12 6.11719C11.6091 6.11719 11.291 5.79914 11.291 5.4082C11.291 5.01727 11.6091 4.69922 12 4.69922C12.3909 4.69922 12.709 5.01727 12.709 5.4082C12.709 5.79914 12.3909 6.11719 12 6.11719Z" fill="#09BDED"/>
</svg>
