<svg width="32" height="32" viewBox="0 0 32 32" fill="none" xmlns="http://www.w3.org/2000/svg">
<g clip-path="url(#clip0)">
<path d="M30.1172 26.5204V25.4143C30.1172 24.1878 29.3299 23.1422 28.2344 22.7548V13.1643H29.1797C29.6974 13.1643 30.1172 12.7445 30.1172 12.2268V9.09398C30.1172 8.76929 29.9492 8.46766 29.6731 8.29679L16.4934 0.140541C16.1911 -0.0465215 15.809 -0.0465215 15.5067 0.140541L2.327 8.29679C2.05087 8.46766 1.88287 8.76929 1.88287 9.09398V12.2268C1.88287 12.7445 2.30262 13.1643 2.82037 13.1643H3.76562V22.7548C2.67006 23.1422 1.88281 24.1877 1.88281 25.4143V26.5204C0.78725 26.9078 0 27.9534 0 29.1799V31.0627C0 31.5805 0.41975 32.0002 0.9375 32.0002H31.0625C31.5802 32.0002 32 31.5805 32 31.0627V29.1799C32 27.9534 31.2127 26.9078 30.1172 26.5204ZM13.1797 13.1643V22.594H9.40625V13.1643H13.1797ZM16.9453 22.594H15.0547V13.1643H16.9453V22.594ZM18.8203 13.1643H22.5938V22.594H18.8203V13.1643ZM26.3594 22.594H24.4688V13.1643H26.3594V22.594ZM3.75781 9.61635L16 2.04023L28.2422 9.61629V11.2893H3.75781V9.61635ZM7.53125 13.1643V22.594H5.64062V13.1643H7.53125ZM3.75781 25.4143C3.75781 24.893 4.18188 24.469 4.70312 24.469H27.2969C27.8181 24.469 28.2422 24.893 28.2422 25.4143V26.3596H3.75781V25.4143ZM30.125 30.1252H1.875V29.1799C1.875 28.6587 2.29906 28.2346 2.82031 28.2346H29.1797C29.7009 28.2346 30.125 28.6587 30.125 29.1799V30.1252Z" fill="#293241"/>
<path d="M16 4.39062C14.4449 4.39062 13.1797 5.65581 13.1797 7.21094C13.1797 8.76606 14.4449 10.0312 16 10.0312C17.5551 10.0312 18.8203 8.76606 18.8203 7.21094C18.8203 5.65581 17.5551 4.39062 16 4.39062ZM16 8.15625C15.4787 8.15625 15.0547 7.73219 15.0547 7.21094C15.0547 6.68969 15.4787 6.26562 16 6.26562C16.5213 6.26562 16.9453 6.68969 16.9453 7.21094C16.9453 7.73219 16.5213 8.15625 16 8.15625Z" fill="#293241"/>
</g>
<defs>
<clipPath id="clip0">
<rect width="32" height="32" fill="white"/>
</clipPath>
</defs>
</svg>
