<svg width="24" height="24" viewBox="0 0 24 24" fill="none" xmlns="http://www.w3.org/2000/svg">
<path d="M23.1968 11.115H22.0913L20.1458 7.19025H20.5913C21.3008 7.19025 21.8775 6.61275 21.8775 5.9025C21.8775 5.19375 21.3008 4.6155 20.5913 4.6155H13.7505V4.17225C13.7505 3.20775 12.9653 2.42175 11.9993 2.42175C11.034 2.42175 10.248 3.20775 10.248 4.17225V4.6155H3.40802C2.69852 4.6155 2.12102 5.19375 2.12102 5.9025C2.12102 6.61275 2.69852 7.19025 3.40802 7.19025H3.85277L1.90802 11.115H0.803273C0.576023 11.115 0.392273 11.2988 0.392273 11.526C0.392273 13.7978 2.24177 15.648 4.51502 15.648C6.78827 15.648 8.63777 13.7978 8.63777 11.526C8.63777 11.2988 8.45402 11.115 8.22677 11.115H7.12127L5.17727 7.19025H10.2488V17.9333H8.76902C6.98627 17.9333 5.53427 19.3845 5.53427 21.168V21.5783H18.4643V21.168C18.4643 19.3845 17.013 17.9333 15.2295 17.9333H13.7498V7.19025H18.8228L16.8773 11.115H15.7718C15.5445 11.115 15.3608 11.2988 15.3608 11.526C15.3608 13.7978 17.2103 15.648 19.4835 15.648C21.756 15.648 23.6063 13.7978 23.6063 11.526C23.6078 11.2988 23.4233 11.115 23.1968 11.115ZM4.51502 14.8268C2.83352 14.8268 1.44152 13.5638 1.23902 11.9363H7.79027C7.58852 13.5638 6.19652 14.8268 4.51502 14.8268ZM2.82452 11.115L4.51502 7.704L6.20552 11.115H2.82452ZM3.40802 6.36825C3.15077 6.36825 2.94227 6.15975 2.94227 5.9025C2.94227 5.646 3.15077 5.43675 3.40802 5.43675H10.248V6.36825H3.40802ZM17.6093 20.757H6.39152C6.58652 19.6215 7.57877 18.7553 8.76902 18.7553H15.2303C16.4213 18.7553 17.4128 19.6215 17.6093 20.757ZM12.9308 17.9333H11.0708V4.17225C11.0708 3.66 11.4878 3.24375 12 3.24375C12.5123 3.24375 12.9308 3.66075 12.9308 4.17225V17.9333ZM13.7505 5.43675H20.5913C20.8478 5.43675 21.057 5.646 21.057 5.9025C21.057 6.15975 20.8478 6.36825 20.5913 6.36825H13.7505V5.43675ZM19.485 7.704L21.1748 11.115H17.7945L19.485 7.704ZM19.485 14.8268C17.8043 14.8268 16.4115 13.5638 16.209 11.9363H22.7603C22.5578 13.5638 21.1658 14.8268 19.485 14.8268Z" fill="#293241"/>
</svg>
