<svg fill="none" height="33" viewBox="0 0 66 33" width="66" xmlns="http://www.w3.org/2000/svg"><rect fill="#60daff" height="33" rx="16.5" width="66"/><path d="m42.8444 24.2742c-.1897-3.1366-2.7933-5.6219-5.9775-5.6219-2.5682 0-4.7584 1.6167-5.6095 3.8876-2.2116.0267-3.9964 1.8268-3.9964 4.0448 0 2.2344 1.8115 4.0459 4.0459 4.0459h11.4264c1.7561 0 3.1797-1.4236 3.1797-3.1797 0-1.7188-1.3641-3.1181-3.0686-3.1767z" fill="#f0f5f7"/><path d="m45.9133 27.4505c0 1.756-1.4238 3.1798-3.1799 3.1798h-.2462c.2304-.4402.361-.9414.361-1.4724 0-1.7188-1.364-3.1183-3.0686-3.1771-.1899-3.1364-2.7935-5.6218-5.9777-5.6218-.4296 0-.8482.0453-1.2516.1311 1.0893-1.1329 2.6205-1.838 4.3167-1.838 3.1842 0 5.788 2.4849 5.9777 5.6218 1.7046.0582 3.0686 1.4577 3.0686 3.1766z" fill="#dde9ed"/><g fill="#f0f5f7"><path d="m41.2591 23.9404c-.1621 0-.3091-.1107-.3487-.2752-.0551-.2295-.1306-.4557-.2243-.6723-.0787-.1818.0049-.393.1869-.4719.1818-.0786.3931.005.4719.187.1102.2543.1987.5199.2636.7894.0462.1929-.0724.3866-.2651.4329-.0283.0068-.0565.0101-.0843.0101z"/><path d="m40.1277 21.8749c-.0943 0-.1886-.0371-.259-.1106-.7936-.8268-1.8597-1.2821-3.0019-1.2821-.1982 0-.359-.1606-.359-.3588s.1608-.359.359-.359c1.3394 0 2.5895.5338 3.5197 1.503.1372.1431.1326.3702-.0105.5074-.0695.0667-.159.1001-.2483.1001z"/><path d="m46.861 5.79996c.1474-2.43553 2.1689-4.36515 4.6412-4.36515 1.994 0 3.6946 1.25528 4.3555 3.01846 1.7172.0208 3.1029 1.41851 3.1029 3.14048 0 1.73498-1.4063 3.14145-3.1413 3.14145-.7263 0-8.1257 0-8.8721 0-1.3635 0-2.4689-1.10521-2.4689-2.4687 0-1.33449 1.0592-2.42113 2.3827-2.46654z"/></g><path d="m58.9607 7.59395c0 1.71997-1.3831 3.11725-3.0982 3.14065.5141-.5597.8278-1.30525.8278-2.12443 0-1.72177-1.3857-3.11968-3.1033-3.14068-.6608-1.76298-2.3613-3.01846-4.3556-3.01846-.2356 0-.4671.01781-.6933.05162.8044-.66695 1.8372-1.06784 2.9638-1.06784 1.9943 0 3.6948 1.25488 4.3556 3.01866 1.7175.0208 3.1032 1.41811 3.1032 3.14048z" fill="#dde9ed"/></svg>