<svg fill="none" height="21" viewBox="0 0 21 21" width="21" xmlns="http://www.w3.org/2000/svg"><path d="m16.895 10.5491c0 3.5758-2.877 6.4748-6.4259 6.4748-3.54883 0-6.42564-2.899-6.42564-6.4748 0-3.57592 2.87681-6.47464 6.42564-6.47464 3.5489 0 6.4259 2.89872 6.4259 6.47464z" fill="#f6cb43"/><path d="m16.8947 10.5485c0 3.5761-2.8768 6.4748-6.4257 6.4748-3.1127 0-5.70871-2.23-6.29932-5.191.41208.0835.83769.1275 1.27405.1275 3.54907 0 6.42567-2.89875 6.42567-6.47485 0-.43968-.0434-.86853-.1265-1.28353 2.9389.59554 5.1518 3.21132 5.1518 6.34708z" fill="#fab03c"/><g fill="#f6cb43"><path d="m10.4691 2.23847c-.2312 0-.4186-.18899-.4186-.42193v-1.394585c0-.232937.1874-.42171086.4186-.42171086.2314 0 .4187.18877386.4187.42171086v1.394585c0 .23294-.1873.42193-.4187.42193z"/><path d="m6.13646 3.40855c-.1446 0-.28532-.07555-.36288-.21086l-.69203-1.20776c-.11558-.20176-.04705-.4596.15319-.57607.20024-.11668.45634-.04741.57192.15436l.69203 1.20755c.11559.20176.04705.45981-.15319.57628-.06596.03832-.13793.0565-.20904.0565z"/><path d="m2.96318 6.60475c-.07112 0-.14309-.01819-.20905-.05651l-1.19864-.69729c-.20002-.11647-.26877-.37452-.15318-.57629.11559-.20176.37168-.27082.57192-.15435l1.19864.6973c.20002.11647.26877.37452.15319.57606-.07756.13552-.21829.21108-.36288.21108z"/><path d="m1.80257 10.9708h-1.384046c-.231177 0-.418524-.189-.418524-.4219s.187347-.4217.418524-.4217h1.384046c.2314 0 .41874.1888.41874.4217s-.18734.4219-.41874.4219z"/><path d="m17.975 6.60475c-.1445 0-.2855-.07556-.3628-.21108-.1158-.20176-.0471-.45959.1532-.57606l1.1984-.6973c.2004-.11647.4563-.04741.5719.15435.1156.20177.0471.45982-.1532.57629l-1.1986.69729c-.066.03832-.138.05651-.2089.05651z"/><path d="m1.76545 16.0345c-.14481 0-.28554-.0755-.3631-.211-.11558-.2016-.04705-.4596.15319-.5761l1.19864-.6973c.20024-.1167.45634-.0474.57192.1543.11559.2018.04705.4596-.15318.5763l-1.19864.6973c-.06596.0383-.13793.0565-.20883.0565z"/><path d="m14.8017 3.40855c-.0709 0-.1428-.01818-.2088-.0565-.2002-.11647-.2688-.37452-.1532-.57628l.692-1.20755c.1156-.20177.3717-.27104.5717-.15436.2003.11647.269.37431.1534.57607l-.692 1.20776c-.0775.13531-.2183.21086-.3631.21086z"/><path d="m10.5309 18.762c.2312 0 .4186.189.4186.4219v1.3946c0 .233-.1874.4217-.4186.4217-.2314 0-.4187-.1887-.4187-.4217v-1.3946c0-.2329.1873-.4219.4187-.4219z"/><path d="m14.8635 17.5919c.1446 0 .2854.0756.3629.2109l.692 1.2078c.1156.2017.0471.4596-.1531.576-.2003.1167-.4564.0474-.572-.1543l-.692-1.2076c-.1156-.2017-.047-.4598.1532-.5763.066-.0383.1379-.0565.209-.0565z"/><path d="m18.0368 14.3957c.0711 0 .1431.0182.2091.0565l1.1986.6973c.2.1165.2688.3746.1532.5763-.1156.2018-.3717.2708-.5719.1544l-1.1987-.6973c-.2-.1165-.2687-.3745-.1532-.5761.0776-.1355.2183-.2111.3629-.2111z"/><path d="m19.1974 10.0297h1.3841c.2312 0 .4185.1889.4185.4219 0 .2329-.1873.4217-.4185.4217h-1.3841c-.2314 0-.4187-.1888-.4187-.4217 0-.233.1873-.4219.4187-.4219z"/><path d="m3.02495 14.3957c.1446 0 .28554.0756.36288.2111.11581.2018.04706.4596-.15318.5761l-1.19843.6973c-.20045.1164-.45634.0474-.57192-.1544-.11559-.2017-.04706-.4598.15318-.5763l1.19864-.6973c.06596-.0383.13793-.0565.20883-.0565z"/><path d="m19.2346 4.96596c.1448 0 .2855.07555.363.21107.1156.20155.0471.4596-.1531.57607l-1.1987.69729c-.2002.11669-.4563.04741-.5719-.15435s-.0471-.4596.1532-.57628l1.1986-.6973c.066-.03831.138-.0565.2089-.0565z"/><path d="m6.19827 17.5919c.0709 0 .14288.0182.20884.0565.20023.1165.26877.3746.15318.5763l-.69202 1.2076c-.11559.2017-.37169.271-.57171.1543-.20024-.1164-.26899-.3743-.1534-.576l.69202-1.2078c.07756-.1353.21829-.2109.36309-.2109z"/></g></svg>