<svg width="37" height="37" viewBox="0 0 37 37" fill="none" xmlns="http://www.w3.org/2000/svg">
<path d="M36.6458 24.1579C36.1956 23.7062 35.4633 23.7062 35.0116 24.1579L31.5891 27.5804V11.7937C31.5891 8.60557 28.9945 6.01249 25.8078 6.01249H16.7891C16.1508 6.01249 15.6328 6.53049 15.6328 7.16874C15.6328 7.80699 16.1508 8.32499 16.7891 8.32499H25.8078C27.7195 8.32499 29.2766 9.88207 29.2766 11.7937V27.5804L25.8541 24.1579C25.4024 23.7062 24.6701 23.7062 24.2199 24.1579C23.7698 24.6096 23.7667 25.3419 24.2199 25.7921L29.6158 31.1879C29.8393 31.4145 30.1353 31.5271 30.4328 31.5271C30.7304 31.5271 31.0233 31.4161 31.2499 31.1879L36.6458 25.7921C37.099 25.3419 37.099 24.6096 36.6458 24.1579ZM20.2116 29.2146H11.1928C9.28117 29.2146 7.72409 27.6575 7.72409 25.7458V9.95916L11.1466 13.3817C11.3748 13.6083 11.6708 13.7208 11.9668 13.7208C12.2628 13.7208 12.5588 13.6083 12.7838 13.3817C13.2355 12.9299 13.2355 12.1977 12.7838 11.7475L7.388 6.35166C6.9363 5.89841 6.204 5.89841 5.75384 6.35166L0.358004 11.7475C-0.0952461 12.1977 -0.0952461 12.9299 0.358004 13.3817C0.811254 13.8334 1.54046 13.8334 1.99217 13.3817L5.41467 9.95916V25.7458C5.41467 28.934 8.0093 31.5271 11.1959 31.5271H20.2147C20.8529 31.5271 21.3709 31.0091 21.3709 30.3708C21.3709 29.7326 20.8514 29.2146 20.2147 29.2146H20.2116Z" fill="#8899A6"/>
</svg>
