<svg width="37" height="37" viewBox="0 0 37 37" fill="none" xmlns="http://www.w3.org/2000/svg">
<path d="M27.0255 11.5162L19.3172 3.8079C18.8655 3.35619 18.1332 3.35619 17.683 3.8079L9.9747 11.5162C9.52145 11.9679 9.52145 12.7002 9.9747 13.1504C10.428 13.6006 11.1572 13.6036 11.6089 13.1504L17.3439 7.4154V23.125C17.3439 23.7632 17.8619 24.2812 18.5001 24.2812C19.1384 24.2812 19.6564 23.7632 19.6564 23.125V7.4154L25.3914 13.1504C25.6165 13.377 25.9125 13.4896 26.2085 13.4896C26.5045 13.4896 26.8005 13.3786 27.0255 13.1504C27.4772 12.6987 27.4772 11.9679 27.0255 11.5162Z" fill="#8899A6"/>
<path d="M30.3833 33.8303H6.617C4.66833 33.8303 3.0835 32.2455 3.0835 30.2968V21.5833C3.0835 20.9451 3.6015 20.4271 4.23975 20.4271C4.878 20.4271 5.396 20.9451 5.396 21.5833V30.2968C5.396 30.9705 5.94329 31.5178 6.617 31.5178H30.3833C31.057 31.5178 31.6043 30.9705 31.6043 30.2968V21.5833C31.6043 20.9451 32.1223 20.4271 32.7606 20.4271C33.3988 20.4271 33.9168 20.9451 33.9168 21.5833V30.2968C33.9168 32.2455 32.332 33.8303 30.3833 33.8303Z" fill="#8899A6"/>
</svg>
