<svg width="37" height="37" viewBox="0 0 37 37" fill="none" xmlns="http://www.w3.org/2000/svg">
<path d="M18.5001 33.3586H18.4785C14.4964 33.2846 3.00635 22.903 3.00635 13.0703C3.00635 8.34661 6.89906 4.19952 11.336 4.19952C14.8664 4.19952 17.2406 6.63536 18.4986 8.40827C19.7535 6.63844 22.1276 4.19952 25.6596 4.19952C30.0996 4.19952 33.9908 8.34661 33.9908 13.0718C33.9908 22.9015 22.4992 33.2831 18.5171 33.3555H18.5001V33.3586ZM11.3375 6.51357C8.13085 6.51357 5.32039 9.5784 5.32039 13.0734C5.32039 21.9225 16.1645 30.9505 18.5016 31.0461C20.8419 30.9505 31.6829 21.9241 31.6829 13.0734C31.6829 9.5784 28.8724 6.51357 25.6658 6.51357C21.7684 6.51357 19.5916 11.0399 19.5731 11.0846C19.2185 11.951 17.7909 11.951 17.4348 11.0846C17.4132 11.0384 15.2379 6.51357 11.3391 6.51357H11.3375Z" fill="#8899A6"/>
</svg>
