<svg width="37" height="37" viewBox="0 0 37 37" fill="none" xmlns="http://www.w3.org/2000/svg">
<path d="M21.6544 3.4564L15.2595 3.44098H15.2564C8.5132 3.44098 3.23145 8.72427 3.23145 15.4691C3.23145 21.7868 8.1432 26.5783 14.74 26.8311V32.7326C14.74 32.8991 14.8078 33.1736 14.925 33.3539C15.1439 33.7008 15.517 33.8889 15.8993 33.8889C16.1121 33.8889 16.3264 33.8303 16.5191 33.707C16.9261 33.448 26.4983 27.3245 28.9881 25.2186C31.9203 22.7365 33.6747 19.0981 33.6794 15.4876V15.4614C33.6701 8.7289 28.3914 3.4564 21.6544 3.45485V3.4564ZM27.4927 23.4549C25.7444 24.9349 19.9971 28.7043 17.0525 30.6129V25.6996C17.0525 25.0613 16.536 24.5433 15.8962 24.5433H15.2857C9.64324 24.5433 5.54549 20.7261 5.54549 15.4691C5.54549 10.0208 9.81282 5.75348 15.258 5.75348L21.6513 5.7689H21.6544C27.0995 5.7689 31.3669 10.0331 31.3699 15.4752C31.3653 18.4198 29.9177 21.4014 27.4942 23.4549H27.4927Z" fill="#8899A6"/>
</svg>
